<svg width="278" height="287" viewBox="0 0 278 287" fill="none" xmlns="http://www.w3.org/2000/svg">
<path d="M162.155 35.6002C155.305 30.2105 148.955 35.7729 146.636 39.2278C149.669 44.0647 157.018 53.4276 162.155 52.1838C168.576 50.6291 170.717 42.3373 162.155 35.6002Z" fill="#B78E78"/>
<path d="M160.895 279.582C176.077 276.63 178.482 258.875 177.969 253.168C162.358 255.041 131.207 265.61 130.027 270.485C128.552 276.579 141.917 283.272 160.895 279.582Z" fill="#98674D"/>
<path d="M60.7218 279.855C45.0452 277.351 42.9918 262.847 42.5905 255.779C58.7364 255.083 93.3128 260.648 95.298 266.375C97.7795 273.535 83.1123 283.43 60.7218 279.855Z" fill="#98674D"/>
<path d="M150.912 249.828C176.664 261.812 266.519 182.224 257.827 145.364C251.185 117.197 191.959 71.1824 168.452 106.771C139.067 151.258 118.723 234.848 150.912 249.828Z" fill="#543A3A"/>
<path d="M16.8412 188.054C20.9393 134.178 36.0987 82.5085 47.1125 67.356C47.1125 67.356 66.3445 44.6186 93.4253 42.3176C142.687 38.1318 156.849 58.0316 156.849 58.0316C181.915 84.4151 194.232 121.492 200.693 188.054C205.764 240.308 184.725 256.67 165.263 262.365C157.593 264.609 143.885 271.406 111.429 271.406C73.8135 271.406 77.5411 268.681 55.4357 263.358C28.0674 256.769 12.7833 241.403 16.8412 188.054Z" fill="#C2947C"/>
<path d="M103.636 7.07188L106.397 7.07188L106.397 32.9026L103.636 32.9026L103.636 7.07188Z" fill="white"/>
<ellipse cx="82.0105" cy="5.34954" rx="22.5461" ry="2.58308" fill="#BCC0C1"/>
<ellipse cx="127.103" cy="5.34954" rx="22.5461" ry="2.58308" fill="#BCC0C1"/>
<ellipse cx="105.018" cy="4.91853" rx="3.22087" ry="3.01359" fill="white"/>
<path d="M106.842 64.7279C76.4871 64.3447 54.0195 61.6942 46.58 60.4169C55.8052 45.8873 68.4523 18.2651 106.842 18.2651C147.017 18.2651 160.855 45.8873 166.212 60.4169C159.07 62.0136 137.197 65.1112 106.842 64.7279Z" fill="#A79184"/>
<mask id="mask0_687_83" style="mask-type:alpha" maskUnits="userSpaceOnUse" x="46" y="18" width="121" height="47">
<path d="M106.839 64.7279C76.4843 64.3447 54.0167 61.6942 46.5772 60.4169C55.8024 45.8873 68.4495 18.2651 106.839 18.2651C147.015 18.2651 160.853 45.8873 166.209 60.4169C159.067 62.0136 137.194 65.1112 106.839 64.7279Z" fill="#8B756A"/>
</mask>
<g mask="url(#mask0_687_83)">
<path d="M132.161 60.8859C130.32 38.4992 117.744 22.8573 104.553 17.8346C109.308 16.1126 119.093 12.6685 120.198 12.6685C121.302 12.6685 167.744 42.6609 185.535 53.5672C176.793 68.0611 134.001 83.2726 132.161 60.8859Z" fill="#927C70"/>
<path d="M78.7861 63.469C80.6266 41.0823 92.7432 22.8573 105.933 17.8346C101.179 16.1126 91.3935 12.6685 90.2892 12.6685C89.1849 12.6685 51.9456 36.2032 34.1542 47.1095C42.8965 61.6034 76.9457 85.8557 78.7861 63.469Z" fill="#927C70"/>
</g>
<path d="M50.7797 58.7317C43.3594 59.4362 38.2027 67.6201 39.6783 73.3691C39.6783 80.0446 164.274 75.2551 170.219 73.3691C176.165 71.4832 170.081 60.6176 164.136 58.7317C158.19 56.8458 58.3461 58.0134 50.7797 58.7317Z" fill="#725F56"/>
<path d="M59.6472 36.2463C66.4967 30.8566 72.8468 36.419 75.1657 39.8739C72.1334 44.7108 64.7843 54.0737 59.6472 52.8299C53.2257 51.2752 51.0853 42.9834 59.6472 36.2463Z" fill="#B78E78"/>
<path d="M94.5268 117.936C94.4758 119.954 93.812 121.738 92.8334 122.993C91.8552 124.247 90.6148 124.92 89.356 124.92C88.0971 124.92 86.8907 124.247 85.9759 122.993C85.0606 121.738 84.4869 119.954 84.5378 117.936C84.5888 115.917 85.2526 114.133 86.2312 112.878C87.2094 111.624 88.4498 110.951 89.7087 110.951C90.9675 110.951 92.1739 111.624 93.0887 112.878C94.004 114.133 94.5777 115.917 94.5268 117.936Z" fill="#45171A" stroke="#45171A" stroke-width="2.25627"/>
<path d="M156.969 117.566C157.011 119.583 156.43 121.367 155.509 122.621C154.589 123.874 153.379 124.548 152.119 124.548C150.859 124.548 149.62 123.874 148.647 122.621C147.674 121.367 147.017 119.583 146.975 117.566C146.933 115.549 147.514 113.766 148.435 112.512C149.355 111.259 150.565 110.585 151.825 110.585C153.085 110.585 154.324 111.259 155.297 112.512C156.27 113.766 156.927 115.549 156.969 117.566Z" fill="#45171A" stroke="#45171A" stroke-width="2.25627"/>
<path d="M120.585 129.029C116.565 129.045 113.129 126.545 115.119 124.291C116.038 123.633 119.601 123.109 120.89 123.032C122.115 122.96 124.495 123.173 125.649 123.993C129.081 126.433 124.606 129.014 120.585 129.029Z" fill="#45171A" stroke="#45171A" stroke-width="2.65614" stroke-linecap="round"/>
<path d="M114.642 138.498L114.598 135.044L121.787 132.925L127.481 134.902L127.524 138.355C127.54 139.601 126.543 140.622 125.297 140.636L116.927 140.729C115.68 140.743 114.658 139.744 114.642 138.498Z" fill="white"/>
<path d="M120.96 128.699L121.031 132.573M121.031 132.573C122.738 133.694 126.979 135.75 130.279 135.009C133.579 134.268 134.996 132.925 135.292 132.346M121.031 132.573C119.973 133.451 117.213 135.217 112.797 135.287C108.38 135.358 106.785 133.661 106.309 132.807" stroke="#45171A" stroke-width="2.25627" stroke-linecap="round"/>
<path d="M166.779 206.981C180.94 200.558 193.539 168.181 188.248 152.989C183.215 153.047 172.526 166.569 159.166 171.654C145.806 176.74 137.631 185.135 135.214 188.698C135.1 190.951 135.901 195.748 137.793 199.456C143.081 209.82 151.007 214.135 166.779 206.981Z" fill="#98674D"/>
<path d="M42.3393 224.854L100.746 256.587C101.357 256.919 102.059 257.046 102.748 256.949L247.92 236.502C250.726 236.107 251.713 232.559 249.515 230.771L215.754 203.312C215.093 202.774 214.247 202.518 213.399 202.599L43.5808 218.772C40.3924 219.076 39.525 223.325 42.3393 224.854Z" fill="#BFBFBF"/>
<path d="M69.469 229.349L110.898 249.64C111.468 249.918 112.106 250.024 112.734 249.945L221.794 236.098C224.703 235.729 225.669 231.996 223.304 230.262L199.662 212.928C199.028 212.464 198.248 212.245 197.465 212.312L70.6187 223.202C67.3407 223.483 66.5142 227.902 69.469 229.349Z" fill="#A8A8A8"/>
<path d="M97.9011 156.782C97.9011 152.957 100.753 149.733 104.549 149.267L252.74 131.045C257.254 130.49 261.235 134.012 261.235 138.56V228.872C261.235 232.641 258.463 235.836 254.732 236.368L106.541 257.489C101.981 258.139 97.9011 254.6 97.9011 249.993V156.782Z" fill="url(#paint0_linear_687_83)"/>
<path d="M191.364 178.393H201.4V181.257H191.364V178.393Z" fill="#9A9A9A"/>
<path d="M191.364 178.393H201.4V181.257H191.364V178.393Z" stroke="#979797"/>
<path d="M197.931 173.268V183.668L194.795 186.682V176.433L197.931 173.268Z" fill="#9A9A9A"/>
<path d="M197.931 173.268V183.668L194.795 186.682V176.433L197.931 173.268Z" stroke="#979797"/>
<path d="M193.218 191.054L199.51 185.025V210.454L193.218 207.289V191.054Z" fill="#9A9A9A"/>
<path d="M193.218 191.054L199.51 185.025V210.454L193.218 207.289V191.054Z" stroke="#979797"/>
<path d="M163.112 181.708V173.267L199.491 208.237V216.677L163.112 181.708Z" fill="#9A9A9A"/>
<path d="M163.112 181.708V173.267L199.491 208.237V216.677L163.112 181.708Z" stroke="#979797"/>
<path d="M163.112 173.267L169.384 179.296L169.384 210.648L163.112 216.677L163.112 173.267Z" fill="#9A9A9A"/>
<path d="M163.112 173.267L169.384 179.296L169.384 210.648L163.112 216.677L163.112 173.267Z" stroke="#979797"/>
<path d="M163.112 216.677L178.478 202.207L174.088 197.987L163.209 207.871L163.112 216.677Z" fill="#9A9A9A"/>
<path d="M163.112 216.677L178.478 202.207L174.088 197.987L163.209 207.871L163.112 216.677Z" stroke="#979797"/>
<path d="M53.2388 209.002C39.5639 201.161 29.0515 167.603 35.252 152.996C40.2499 153.566 50.0342 168.132 62.9961 174.559C75.9581 180.986 85.0178 189.668 85.7421 193.984C86.5 198.5 84.6221 200.942 82.5122 204.446C76.6143 214.241 68.4698 217.737 53.2388 209.002Z" fill="#98674D"/>
<defs>
<linearGradient id="paint0_linear_687_83" x1="131.974" y1="134.868" x2="235.275" y2="254.934" gradientUnits="userSpaceOnUse">
<stop stop-color="#D9D9D9"/>
<stop offset="1" stop-color="#ACACAC"/>
</linearGradient>
</defs>
</svg>
